<svg width="353" height="375" viewBox="0 0 353 375" fill="none" xmlns="http://www.w3.org/2000/svg">
<path d="M309.581 34.8467V333.585H0V34.8467H309.581Z" fill="#1D3557"/>
<path d="M310.183 225.481C286.566 225.481 267.42 207.006 267.42 184.216C267.42 161.426 286.566 142.951 310.183 142.951C333.801 142.951 352.946 161.426 352.946 184.216C352.946 207.006 333.801 225.481 310.183 225.481Z" fill="#1D3557"/>
<path d="M154.79 374.269C131.173 374.269 112.027 355.794 112.027 333.004C112.027 310.214 131.173 291.738 154.79 291.738C178.408 291.738 197.554 310.214 197.554 333.004C197.554 355.794 178.408 374.269 154.79 374.269Z" fill="#1D3557"/>
<path d="M154.79 83.0865C131.173 83.0865 112.027 64.6113 112.027 41.8211C112.027 19.0308 131.173 0.555664 154.79 0.555664C178.408 0.555664 197.554 19.0308 197.554 41.8211C197.554 64.6113 178.408 83.0865 154.79 83.0865Z" fill="#F0F2F5"/>
<path d="M160.625 107.5C160.625 106.008 160.032 104.577 158.977 103.523C157.923 102.468 156.492 101.875 155 101.875C153.508 101.875 152.077 102.468 151.023 103.523C149.968 104.577 149.375 106.008 149.375 107.5V139.375H117.5C116.008 139.375 114.577 139.968 113.523 141.023C112.468 142.077 111.875 143.508 111.875 145C111.875 146.492 112.468 147.923 113.523 148.977C114.577 150.032 116.008 150.625 117.5 150.625H149.375V182.5C149.375 183.992 149.968 185.423 151.023 186.477C152.077 187.532 153.508 188.125 155 188.125C156.492 188.125 157.923 187.532 158.977 186.477C160.032 185.423 160.625 183.992 160.625 182.5V150.625H192.5C193.992 150.625 195.423 150.032 196.477 148.977C197.532 147.923 198.125 146.492 198.125 145C198.125 143.508 197.532 142.077 196.477 141.023C195.423 139.968 193.992 139.375 192.5 139.375H160.625V107.5Z" fill="white"/>
<path d="M131.883 287.156V291.727H99.1094V287.156H112.664V279.422H118.289V287.156H131.883ZM128.992 262.469V266.961H118.484C119.07 271.297 122.859 275.32 130.789 276.453L128.602 280.867C122.176 279.793 117.762 276.883 115.477 272.859C113.23 276.98 108.875 280.008 102.547 281.141L100.359 276.688C108.016 275.477 111.766 271.316 112.391 266.961H101.844V262.469H128.992ZM154.344 266.062C154.305 269.812 156.023 273.465 160.555 275.359V260.555H165.75V268.406H168.172V259.93H173.523V281.805H168.172V272.938H165.75V280.672H160.555V275.945L157.898 279.812C154.969 278.68 152.957 276.707 151.688 274.227C150.398 277.195 148.23 279.656 144.969 280.984L141.961 276.648C147.078 274.383 148.836 270.047 148.836 266.062V262.078H154.344V266.062ZM161.141 282.156C168.758 282.156 173.68 284.734 173.719 288.953C173.68 293.172 168.758 295.789 161.141 295.75C153.523 295.789 148.602 293.172 148.641 288.953C148.602 284.734 153.523 282.156 161.141 282.156ZM161.141 286.375C156.727 286.336 154.227 287.195 154.266 288.953C154.227 290.711 156.727 291.531 161.141 291.531C165.555 291.531 168.016 290.711 168.055 288.953C168.016 287.195 165.555 286.336 161.141 286.375ZM191.141 264.539C191.102 269.227 193.211 273.641 199.109 275.438L196.141 279.812C192.371 278.543 189.871 276.219 188.406 273.172C186.805 276.727 183.992 279.52 179.734 280.906L176.766 276.414C183.133 274.461 185.398 269.656 185.438 264.812V261.727H191.141V264.539ZM207.547 259.891V280.828H201.961V270.711H195.633V266.102H201.961V259.891H207.547ZM195.164 281.727C202.898 281.727 207.625 284.305 207.664 288.758C207.625 293.211 202.898 295.789 195.164 295.75C187.508 295.789 182.781 293.211 182.781 288.758C182.781 284.305 187.508 281.727 195.164 281.727ZM195.164 286.062C190.672 286.062 188.367 286.883 188.367 288.758C188.367 290.555 190.672 291.414 195.164 291.414C199.734 291.414 202.039 290.555 202.078 288.758C202.039 286.883 199.734 286.062 195.164 286.062Z" fill="white"/>
</svg>
