<svg width="353" height="346" viewBox="0 0 353 346" fill="none" xmlns="http://www.w3.org/2000/svg">
<path d="M353 0.846619V299.585H43.419V0.846619H353Z" fill="#1D3557"/>
<path d="M198.21 345.5C174.592 345.5 155.446 327.025 155.446 304.235C155.446 281.444 174.592 262.969 198.21 262.969C221.827 262.969 240.973 281.444 240.973 304.235C240.973 327.025 221.827 345.5 198.21 345.5Z" fill="#1D3557"/>
<path d="M42.8167 191.481C19.1993 191.481 0.0535736 173.006 0.0535736 150.216C0.0535736 127.426 19.1993 108.95 42.8167 108.95C66.4341 108.95 85.5798 127.426 85.5798 150.216C85.5798 173.006 66.4341 191.481 42.8167 191.481Z" fill="#F0F2F5"/>
<path fill-rule="evenodd" clip-rule="evenodd" d="M158.625 78.25C158.625 69.7962 161.983 61.6887 167.961 55.711C173.939 49.7332 182.046 46.375 190.5 46.375C198.954 46.375 207.061 49.7332 213.039 55.711C219.017 61.6887 222.375 69.7962 222.375 78.25C222.375 86.7038 219.017 94.8113 213.039 100.789C207.061 106.767 198.954 110.125 190.5 110.125C182.046 110.125 173.939 106.767 167.961 100.789C161.983 94.8113 158.625 86.7038 158.625 78.25ZM190.5 57.625C185.03 57.625 179.784 59.798 175.916 63.6659C172.048 67.5339 169.875 72.7799 169.875 78.25C169.875 83.7201 172.048 88.9661 175.916 92.8341C179.784 96.702 185.03 98.875 190.5 98.875C195.97 98.875 201.216 96.702 205.084 92.8341C208.952 88.9661 211.125 83.7201 211.125 78.25C211.125 72.7799 208.952 67.5339 205.084 63.6659C201.216 59.798 195.97 57.625 190.5 57.625ZM132.375 149.5C132.375 142.041 135.338 134.887 140.613 129.613C145.887 124.338 153.041 121.375 160.5 121.375H163.05C164.45 121.38 165.81 121.595 167.13 122.02L173.625 124.143C184.59 127.722 196.41 127.722 207.375 124.143L213.87 122.02C215.183 121.593 216.562 121.375 217.943 121.375H220.5C227.959 121.375 235.113 124.338 240.387 129.613C245.662 134.887 248.625 142.041 248.625 149.5V158.41C248.625 164.065 244.53 168.88 238.95 169.787C206.862 175.025 174.138 175.025 142.05 169.787C139.351 169.344 136.898 167.956 135.126 165.873C133.354 163.789 132.38 161.145 132.375 158.41V149.5ZM160.5 132.625C156.024 132.625 151.732 134.403 148.568 137.568C145.403 140.732 143.625 145.024 143.625 149.5V158.41C143.625 158.545 143.723 158.665 143.858 158.688C174.75 163.728 206.257 163.728 237.143 158.688C237.206 158.673 237.263 158.638 237.305 158.588C237.347 158.538 237.372 158.475 237.375 158.41V149.5C237.375 145.024 235.597 140.732 232.432 137.568C229.268 134.403 224.976 132.625 220.5 132.625H217.95C217.749 132.628 217.55 132.659 217.358 132.715L210.87 134.838C197.634 139.159 183.366 139.159 170.13 134.838L163.635 132.715C163.447 132.66 163.253 132.63 163.058 132.625H160.5Z" fill="white"/>
<path d="M254.25 68.875C255.742 68.875 257.173 69.4676 258.227 70.5225C259.282 71.5774 259.875 73.0082 259.875 74.5V87.625H273C274.492 87.625 275.923 88.2176 276.977 89.2725C278.032 90.3274 278.625 91.7582 278.625 93.25C278.625 94.7418 278.032 96.1726 276.977 97.2275C275.923 98.2824 274.492 98.875 273 98.875H259.875V112C259.875 113.492 259.282 114.923 258.227 115.977C257.173 117.032 255.742 117.625 254.25 117.625C252.758 117.625 251.327 117.032 250.273 115.977C249.218 114.923 248.625 113.492 248.625 112V98.875H235.5C234.008 98.875 232.577 98.2824 231.523 97.2275C230.468 96.1726 229.875 94.7418 229.875 93.25C229.875 91.7582 230.468 90.3274 231.523 89.2725C232.577 88.2176 234.008 87.625 235.5 87.625H248.625V74.5C248.625 73.0082 249.218 71.5774 250.273 70.5225C251.327 69.4676 252.758 68.875 254.25 68.875Z" fill="white"/>
<path d="M177.836 229.289V233.664H170.922C171.098 236.965 173.383 240.344 179.086 241.828L176.547 246.164C172.504 245.148 169.77 243.02 168.148 240.266C166.566 243.312 163.812 245.676 159.633 246.75L156.977 242.414C162.699 240.91 165.062 237.297 165.258 233.664H158.344V229.289H165.258V225.773H170.922V229.289H177.836ZM185.922 225.891V234.094H190.57V238.664H185.922V246.828H180.297V225.891H185.922ZM185.922 248.273V261.359H162.25V248.273H185.922ZM167.797 252.688V256.867H180.375V252.688H167.797ZM220.375 225.891V239.367H225.18V243.977H220.375V261.633H214.75V225.891H220.375ZM210.688 229.484C210.688 240.383 206.703 249.68 194.516 255.656L191.352 251.359C199.574 247.238 203.988 241.887 204.984 234.094H193.5V229.484H210.688Z" fill="white"/>
</svg>
