<svg width="397" height="341" viewBox="0 0 397 341" fill="none" xmlns="http://www.w3.org/2000/svg">
<rect x="44.3119" y="41.8466" width="309.581" height="298.738" fill="#1D3557"/>
<ellipse cx="199.102" cy="41.2654" rx="42.7631" ry="41.2654" fill="#1D3557"/>
<ellipse cx="353.29" cy="191.216" rx="42.7631" ry="41.2654" fill="#1D3557"/>
<path d="M86.4727 191.216C86.4727 214.006 67.327 232.481 43.7095 232.481C20.0921 232.481 0.946411 214.006 0.946411 191.216C0.946411 168.426 20.0921 149.95 43.7095 149.95C67.327 149.95 86.4727 168.426 86.4727 191.216Z" fill="#F0F2F5"/>
<path fill-rule="evenodd" clip-rule="evenodd" d="M215.888 177.845C205.777 185.923 192.958 189.824 180.061 188.745C167.165 187.667 155.171 181.691 146.543 172.045C137.916 162.4 133.308 149.817 133.668 136.881C134.028 123.944 139.328 111.637 148.479 102.486C157.63 93.3353 169.937 88.0358 182.873 87.6759C195.809 87.316 208.392 91.9231 218.038 100.551C227.683 109.179 233.659 121.173 234.738 134.069C235.816 146.965 231.916 159.785 223.838 169.895L262.508 208.558C263.06 209.072 263.503 209.693 263.811 210.383C264.118 211.073 264.284 211.818 264.297 212.574C264.31 213.329 264.171 214.079 263.888 214.779C263.606 215.48 263.184 216.116 262.65 216.65C262.116 217.184 261.48 217.606 260.779 217.888C260.079 218.171 259.329 218.31 258.574 218.297C257.818 218.284 257.073 218.118 256.383 217.811C255.693 217.503 255.072 217.06 254.558 216.508L215.888 177.845ZM156.45 166.13C150.945 160.625 147.196 153.611 145.676 145.976C144.157 138.34 144.934 130.426 147.911 123.232C150.888 116.039 155.931 109.889 162.402 105.561C168.873 101.232 176.482 98.9194 184.267 98.9141C192.052 98.9089 199.665 101.212 206.141 105.531C212.618 109.851 217.669 115.994 220.656 123.183C223.643 130.373 224.431 138.286 222.922 145.924C221.412 153.561 217.672 160.58 212.175 166.093L212.138 166.13L212.1 166.16C204.713 173.53 194.703 177.666 184.269 177.66C173.834 177.655 163.829 173.508 156.45 166.13Z" fill="white"/>
<path d="M175.883 294.156V298.727H143.109V294.156H156.664V286.422H162.289V294.156H175.883ZM172.992 269.469V273.961H162.484C163.07 278.297 166.859 282.32 174.789 283.453L172.602 287.867C166.176 286.793 161.762 283.883 159.477 279.859C157.23 283.98 152.875 287.008 146.547 288.141L144.359 283.688C152.016 282.477 155.766 278.316 156.391 273.961H145.844V269.469H172.992ZM215.18 268.297V281.07H205.727V284.117H219.32V288.609H186.625V284.117H200.062V281.07H190.609V268.297H215.18ZM196.117 272.633V276.695H209.672V272.633H196.117ZM215.375 290.914V302.75H209.75V295.289H190.258V290.914H215.375ZM253.93 285.953V290.406H221.156V285.953H234.789V283.766H225.18V273.531H244.398V271.852H225.141V267.516H250.062V277.555H230.766V279.469H250.688V283.766H240.336V285.953H253.93ZM250.258 292.203V302.633H244.594V296.617H224.828V292.203H250.258Z" fill="white"/>
</svg>
